<svg xmlns="http://www.w3.org/2000/svg" xmlns:xlink="http://www.w3.org/1999/xlink" width="500" zoomAndPan="magnify" viewBox="0 0 375 374.999991" height="500" preserveAspectRatio="xMidYMid meet" version="1.0"><defs><g/><clipPath id="05b8ed2e96"><path d="M 0.71875 98 L 1 98 L 1 99 L 0.71875 99 Z M 0.71875 98 " clip-rule="nonzero"/></clipPath><clipPath id="f8b20c40d4"><rect x="0" width="241" y="0" height="134"/></clipPath><clipPath id="a50fb96bda"><path d="M 63 141 L 93 141 L 93 171 L 63 171 Z M 63 141 " clip-rule="nonzero"/></clipPath><clipPath id="43ca9c499c"><path d="M 44.214844 150.804688 L 73.382812 121.636719 L 93.003906 141.257812 L 63.835938 170.425781 Z M 44.214844 150.804688 " clip-rule="nonzero"/></clipPath><clipPath id="86dabd82d6"><path d="M 44.214844 150.804688 L 73.382812 121.636719 L 93.003906 141.257812 L 63.835938 170.425781 Z M 44.214844 150.804688 " clip-rule="nonzero"/></clipPath><clipPath id="8ab59e7af7"><path d="M 55.402344 161.875 L 84.207031 133.070312 L 92.789062 141.652344 L 63.984375 170.457031 Z M 55.402344 161.875 " clip-rule="nonzero"/></clipPath><clipPath id="57652b9e74"><path d="M 51 148 L 67 148 L 67 152 L 51 152 Z M 51 148 " clip-rule="nonzero"/></clipPath><clipPath id="192df8dd92"><path d="M 44.214844 150.804688 L 73.382812 121.636719 L 93.003906 141.257812 L 63.835938 170.425781 Z M 44.214844 150.804688 " clip-rule="nonzero"/></clipPath><clipPath id="648d3bfecf"><path d="M 44.214844 150.804688 L 73.382812 121.636719 L 93.003906 141.257812 L 63.835938 170.425781 Z M 44.214844 150.804688 " clip-rule="nonzero"/></clipPath><clipPath id="5b8628f4fb"><path d="M 70 129 L 74 129 L 74 144 L 70 144 Z M 70 129 " clip-rule="nonzero"/></clipPath><clipPath id="9d980e2066"><path d="M 44.214844 150.804688 L 73.382812 121.636719 L 93.003906 141.257812 L 63.835938 170.425781 Z M 44.214844 150.804688 " clip-rule="nonzero"/></clipPath><clipPath id="bb13968d3b"><path d="M 44.214844 150.804688 L 73.382812 121.636719 L 93.003906 141.257812 L 63.835938 170.425781 Z M 44.214844 150.804688 " clip-rule="nonzero"/></clipPath><clipPath id="698647afcb"><path d="M 78 133 L 85 133 L 85 144 L 78 144 Z M 78 133 " clip-rule="nonzero"/></clipPath><clipPath id="88a58400c8"><path d="M 44.214844 150.804688 L 73.382812 121.636719 L 93.003906 141.257812 L 63.835938 170.425781 Z M 44.214844 150.804688 " clip-rule="nonzero"/></clipPath><clipPath id="f821c51e9a"><path d="M 44.214844 150.804688 L 73.382812 121.636719 L 93.003906 141.257812 L 63.835938 170.425781 Z M 44.214844 150.804688 " clip-rule="nonzero"/></clipPath><clipPath id="5f7448d358"><path d="M 55 156 L 66 156 L 66 163 L 55 163 Z M 55 156 " clip-rule="nonzero"/></clipPath><clipPath id="adbdf1c270"><path d="M 44.214844 150.804688 L 73.382812 121.636719 L 93.003906 141.257812 L 63.835938 170.425781 Z M 44.214844 150.804688 " clip-rule="nonzero"/></clipPath><clipPath id="89e010b996"><path d="M 44.214844 150.804688 L 73.382812 121.636719 L 93.003906 141.257812 L 63.835938 170.425781 Z M 44.214844 150.804688 " clip-rule="nonzero"/></clipPath><clipPath id="8c9ade3ebc"><path d="M 58 136 L 69 136 L 69 147 L 58 147 Z M 58 136 " clip-rule="nonzero"/></clipPath><clipPath id="5b3bb1fda0"><path d="M 44.214844 150.804688 L 73.382812 121.636719 L 93.003906 141.257812 L 63.835938 170.425781 Z M 44.214844 150.804688 " clip-rule="nonzero"/></clipPath><clipPath id="c29464531f"><path d="M 44.214844 150.804688 L 73.382812 121.636719 L 93.003906 141.257812 L 63.835938 170.425781 Z M 44.214844 150.804688 " clip-rule="nonzero"/></clipPath><clipPath id="695cfc42c8"><path d="M 59 144 L 68 144 L 68 149 L 59 149 Z M 59 144 " clip-rule="nonzero"/></clipPath><clipPath id="5f2684a9ac"><path d="M 44.214844 150.804688 L 73.382812 121.636719 L 93.003906 141.257812 L 63.835938 170.425781 Z M 44.214844 150.804688 " clip-rule="nonzero"/></clipPath><clipPath id="2c64dc0a0e"><path d="M 44.214844 150.804688 L 73.382812 121.636719 L 93.003906 141.257812 L 63.835938 170.425781 Z M 44.214844 150.804688 " clip-rule="nonzero"/></clipPath><clipPath id="956a3218a3"><path d="M 57 153 L 66 153 L 66 156 L 57 156 Z M 57 153 " clip-rule="nonzero"/></clipPath><clipPath id="a62b425a4a"><path d="M 44.214844 150.804688 L 73.382812 121.636719 L 93.003906 141.257812 L 63.835938 170.425781 Z M 44.214844 150.804688 " clip-rule="nonzero"/></clipPath><clipPath id="9bc9f26f8d"><path d="M 44.214844 150.804688 L 73.382812 121.636719 L 93.003906 141.257812 L 63.835938 170.425781 Z M 44.214844 150.804688 " clip-rule="nonzero"/></clipPath><clipPath id="e1ed0551e5"><path d="M 75 135 L 78 135 L 78 144 L 75 144 Z M 75 135 " clip-rule="nonzero"/></clipPath><clipPath id="ac4381a7cd"><path d="M 44.214844 150.804688 L 73.382812 121.636719 L 93.003906 141.257812 L 63.835938 170.425781 Z M 44.214844 150.804688 " clip-rule="nonzero"/></clipPath><clipPath id="bc98b3d589"><path d="M 44.214844 150.804688 L 73.382812 121.636719 L 93.003906 141.257812 L 63.835938 170.425781 Z M 44.214844 150.804688 " clip-rule="nonzero"/></clipPath><clipPath id="45d7422148"><path d="M 81 138 L 88 138 L 88 145 L 81 145 Z M 81 138 " clip-rule="nonzero"/></clipPath><clipPath id="26b8fef16d"><path d="M 44.214844 150.804688 L 73.382812 121.636719 L 93.003906 141.257812 L 63.835938 170.425781 Z M 44.214844 150.804688 " clip-rule="nonzero"/></clipPath><clipPath id="fa80d8af70"><path d="M 44.214844 150.804688 L 73.382812 121.636719 L 93.003906 141.257812 L 63.835938 170.425781 Z M 44.214844 150.804688 " clip-rule="nonzero"/></clipPath><clipPath id="c12360c64a"><path d="M 61 159 L 67 159 L 67 166 L 61 166 Z M 61 159 " clip-rule="nonzero"/></clipPath><clipPath id="20a4b91a00"><path d="M 44.214844 150.804688 L 73.382812 121.636719 L 93.003906 141.257812 L 63.835938 170.425781 Z M 44.214844 150.804688 " clip-rule="nonzero"/></clipPath><clipPath id="9fe73ad890"><path d="M 44.214844 150.804688 L 73.382812 121.636719 L 93.003906 141.257812 L 63.835938 170.425781 Z M 44.214844 150.804688 " clip-rule="nonzero"/></clipPath><clipPath id="d33a0839a8"><path d="M 67 136 L 72 136 L 72 146 L 67 146 Z M 67 136 " clip-rule="nonzero"/></clipPath><clipPath id="5bdd66c0c1"><path d="M 44.214844 150.804688 L 73.382812 121.636719 L 93.003906 141.257812 L 63.835938 170.425781 Z M 44.214844 150.804688 " clip-rule="nonzero"/></clipPath><clipPath id="4e319e5310"><path d="M 44.214844 150.804688 L 73.382812 121.636719 L 93.003906 141.257812 L 63.835938 170.425781 Z M 44.214844 150.804688 " clip-rule="nonzero"/></clipPath><clipPath id="23649ebbf0"><rect x="0" width="23" y="0" height="117"/></clipPath><clipPath id="2dbfe4004d"><path d="M 39 117 L 105 117 L 105 181 L 39 181 Z M 39 117 " clip-rule="nonzero"/></clipPath><clipPath id="b47efa107d"><path d="M 21.3125 148.375 L 74.605469 98.851562 L 104.726562 131.265625 L 51.433594 180.789062 Z M 21.3125 148.375 " clip-rule="nonzero"/></clipPath><clipPath id="f71fb0b64c"><path d="M 20.296875 149.320312 L 74.6875 98.773438 L 125.742188 153.714844 L 71.351562 204.257812 Z M 20.296875 149.320312 " clip-rule="nonzero"/></clipPath></defs><g transform="matrix(1, 0, 0, 1, 66, 117)"><g clip-path="url(#f8b20c40d4)"><g clip-path="url(#05b8ed2e96)"><g fill="#ffffff" fill-opacity="1"><g transform="translate(0.816013, 98.39623)"><g/></g></g></g><g fill="#ffffff" fill-opacity="1"><g transform="translate(25.97911, 98.39623)"><g><path d="M 11.3125 0.6875 C 10.007812 0.6875 9.03125 0.328125 8.375 -0.390625 C 7.726562 -1.109375 7.40625 -2.113281 7.40625 -3.40625 L 7.40625 -44.0625 C 7.40625 -45.363281 7.726562 -46.351562 8.375 -47.03125 C 9.03125 -47.71875 9.976562 -48.0625 11.21875 -48.0625 C 12.445312 -48.0625 13.398438 -47.71875 14.078125 -47.03125 C 14.765625 -46.351562 15.109375 -45.363281 15.109375 -44.0625 L 15.109375 -35.6875 L 14.046875 -36.859375 C 15.410156 -40.628906 17.632812 -43.472656 20.71875 -45.390625 C 23.800781 -47.304688 27.359375 -48.265625 31.390625 -48.265625 C 35.160156 -48.265625 38.296875 -47.582031 40.796875 -46.21875 C 43.304688 -44.851562 45.175781 -42.785156 46.40625 -40.015625 C 47.644531 -37.253906 48.265625 -33.765625 48.265625 -29.546875 L 48.265625 -3.40625 C 48.265625 -2.113281 47.921875 -1.109375 47.234375 -0.390625 C 46.554688 0.328125 45.597656 0.6875 44.359375 0.6875 C 43.054688 0.6875 42.0625 0.328125 41.375 -0.390625 C 40.695312 -1.109375 40.359375 -2.113281 40.359375 -3.40625 L 40.359375 -29.0625 C 40.359375 -33.476562 39.5 -36.707031 37.78125 -38.75 C 36.0625 -40.800781 33.316406 -41.828125 29.546875 -41.828125 C 25.191406 -41.828125 21.726562 -40.476562 19.15625 -37.78125 C 16.59375 -35.082031 15.3125 -31.488281 15.3125 -27 L 15.3125 -3.40625 C 15.3125 -0.675781 13.976562 0.6875 11.3125 0.6875 Z M 11.3125 0.6875 "/></g></g></g><g fill="#ffffff" fill-opacity="1"><g transform="translate(81.360448, 98.39623)"><g><path d="M 11.3125 0.6875 C 10.007812 0.6875 9.03125 0.328125 8.375 -0.390625 C 7.726562 -1.109375 7.40625 -2.113281 7.40625 -3.40625 L 7.40625 -44.0625 C 7.40625 -45.363281 7.726562 -46.351562 8.375 -47.03125 C 9.03125 -47.71875 9.976562 -48.0625 11.21875 -48.0625 C 12.445312 -48.0625 13.398438 -47.71875 14.078125 -47.03125 C 14.765625 -46.351562 15.109375 -45.363281 15.109375 -44.0625 L 15.109375 -35.6875 L 14.046875 -36.859375 C 15.410156 -40.628906 17.632812 -43.472656 20.71875 -45.390625 C 23.800781 -47.304688 27.359375 -48.265625 31.390625 -48.265625 C 35.160156 -48.265625 38.296875 -47.582031 40.796875 -46.21875 C 43.304688 -44.851562 45.175781 -42.785156 46.40625 -40.015625 C 47.644531 -37.253906 48.265625 -33.765625 48.265625 -29.546875 L 48.265625 -3.40625 C 48.265625 -2.113281 47.921875 -1.109375 47.234375 -0.390625 C 46.554688 0.328125 45.597656 0.6875 44.359375 0.6875 C 43.054688 0.6875 42.0625 0.328125 41.375 -0.390625 C 40.695312 -1.109375 40.359375 -2.113281 40.359375 -3.40625 L 40.359375 -29.0625 C 40.359375 -33.476562 39.5 -36.707031 37.78125 -38.75 C 36.0625 -40.800781 33.316406 -41.828125 29.546875 -41.828125 C 25.191406 -41.828125 21.726562 -40.476562 19.15625 -37.78125 C 16.59375 -35.082031 15.3125 -31.488281 15.3125 -27 L 15.3125 -3.40625 C 15.3125 -0.675781 13.976562 0.6875 11.3125 0.6875 Z M 11.3125 0.6875 "/></g></g></g><g fill="#ffffff" fill-opacity="1"><g transform="translate(136.741785, 98.39623)"><g><path d="M 22.328125 0.875 C 19.078125 0.875 16.164062 0.242188 13.59375 -1.015625 C 11.03125 -2.285156 9 -4.023438 7.5 -6.234375 C 6.007812 -8.453125 5.265625 -10.925781 5.265625 -13.65625 C 5.265625 -17.164062 6.15625 -19.925781 7.9375 -21.9375 C 9.726562 -23.945312 12.6875 -25.375 16.8125 -26.21875 C 20.945312 -27.070312 26.585938 -27.5 33.734375 -27.5 L 38.125 -27.5 L 38.125 -22.328125 L 33.828125 -22.328125 C 28.566406 -22.328125 24.425781 -22.082031 21.40625 -21.59375 C 18.382812 -21.101562 16.269531 -20.273438 15.0625 -19.109375 C 13.863281 -17.941406 13.265625 -16.285156 13.265625 -14.140625 C 13.265625 -11.472656 14.1875 -9.289062 16.03125 -7.59375 C 17.882812 -5.90625 20.40625 -5.0625 23.59375 -5.0625 C 26.195312 -5.0625 28.488281 -5.679688 30.46875 -6.921875 C 32.445312 -8.160156 34.003906 -9.847656 35.140625 -11.984375 C 36.285156 -14.128906 36.859375 -16.601562 36.859375 -19.40625 L 36.859375 -30.515625 C 36.859375 -34.546875 36.046875 -37.453125 34.421875 -39.234375 C 32.796875 -41.023438 30.128906 -41.921875 26.421875 -41.921875 C 24.148438 -41.921875 21.875 -41.628906 19.59375 -41.046875 C 17.320312 -40.460938 14.914062 -39.519531 12.375 -38.21875 C 11.46875 -37.757812 10.6875 -37.613281 10.03125 -37.78125 C 9.382812 -37.945312 8.863281 -38.285156 8.46875 -38.796875 C 8.082031 -39.316406 7.859375 -39.914062 7.796875 -40.59375 C 7.734375 -41.28125 7.878906 -41.945312 8.234375 -42.59375 C 8.597656 -43.25 9.164062 -43.773438 9.9375 -44.171875 C 12.800781 -45.597656 15.628906 -46.632812 18.421875 -47.28125 C 21.222656 -47.9375 23.890625 -48.265625 26.421875 -48.265625 C 30.515625 -48.265625 33.894531 -47.597656 36.5625 -46.265625 C 39.226562 -44.929688 41.207031 -42.914062 42.5 -40.21875 C 43.800781 -37.519531 44.453125 -34.054688 44.453125 -29.828125 L 44.453125 -3.40625 C 44.453125 -2.113281 44.144531 -1.109375 43.53125 -0.390625 C 42.914062 0.328125 42.023438 0.6875 40.859375 0.6875 C 39.617188 0.6875 38.671875 0.328125 38.015625 -0.390625 C 37.367188 -1.109375 37.046875 -2.113281 37.046875 -3.40625 L 37.046875 -11.015625 L 37.921875 -11.015625 C 37.398438 -8.546875 36.410156 -6.429688 34.953125 -4.671875 C 33.492188 -2.921875 31.691406 -1.554688 29.546875 -0.578125 C 27.398438 0.390625 24.992188 0.875 22.328125 0.875 Z M 22.328125 0.875 "/></g></g></g><g fill="#ffffff" fill-opacity="1"><g transform="translate(188.418024, 98.39623)"><g><path d="M 28.765625 0.875 C 23.753906 0.875 19.445312 -0.113281 15.84375 -2.09375 C 12.238281 -4.070312 9.441406 -6.878906 7.453125 -10.515625 C 5.472656 -14.160156 4.484375 -18.519531 4.484375 -23.59375 C 4.484375 -28.53125 5.457031 -32.832031 7.40625 -36.5 C 9.351562 -40.175781 12.035156 -43.054688 15.453125 -45.140625 C 18.867188 -47.222656 22.816406 -48.265625 27.296875 -48.265625 C 30.484375 -48.265625 33.34375 -47.726562 35.875 -46.65625 C 38.414062 -45.582031 40.578125 -44.035156 42.359375 -42.015625 C 44.148438 -40.003906 45.515625 -37.566406 46.453125 -34.703125 C 47.398438 -31.847656 47.875 -28.632812 47.875 -25.0625 C 47.875 -24.019531 47.582031 -23.253906 47 -22.765625 C 46.414062 -22.273438 45.566406 -22.03125 44.453125 -22.03125 L 10.53125 -22.03125 L 10.53125 -27.203125 L 42.609375 -27.203125 L 41.046875 -25.9375 C 41.046875 -29.445312 40.523438 -32.421875 39.484375 -34.859375 C 38.441406 -37.296875 36.929688 -39.160156 34.953125 -40.453125 C 32.972656 -41.753906 30.488281 -42.40625 27.5 -42.40625 C 24.175781 -42.40625 21.359375 -41.640625 19.046875 -40.109375 C 16.742188 -38.585938 15.007812 -36.476562 13.84375 -33.78125 C 12.675781 -31.082031 12.09375 -27.945312 12.09375 -24.375 L 12.09375 -23.796875 C 12.09375 -17.804688 13.535156 -13.25 16.421875 -10.125 C 19.316406 -7.007812 23.429688 -5.453125 28.765625 -5.453125 C 30.972656 -5.453125 33.164062 -5.742188 35.34375 -6.328125 C 37.519531 -6.921875 39.648438 -7.898438 41.734375 -9.265625 C 42.640625 -9.847656 43.46875 -10.125 44.21875 -10.09375 C 44.96875 -10.0625 45.566406 -9.832031 46.015625 -9.40625 C 46.472656 -8.988281 46.78125 -8.46875 46.9375 -7.84375 C 47.101562 -7.226562 47.039062 -6.5625 46.75 -5.84375 C 46.457031 -5.132812 45.890625 -4.519531 45.046875 -4 C 42.898438 -2.4375 40.363281 -1.234375 37.4375 -0.390625 C 34.507812 0.453125 31.617188 0.875 28.765625 0.875 Z M 28.765625 0.875 "/></g></g></g></g></g><g clip-path="url(#a50fb96bda)"><g clip-path="url(#43ca9c499c)"><g clip-path="url(#86dabd82d6)"><g clip-path="url(#8ab59e7af7)"><path fill="#d3a71e" d="M 91.777344 141.394531 C 89.597656 143.246094 87.324219 145.269531 85.023438 147.390625 C 82.28125 144.761719 78.359375 143.769531 74.691406 144.777344 C 71.027344 145.785156 68.164062 148.648438 67.15625 152.316406 C 66.148438 155.980469 67.140625 159.90625 69.773438 162.644531 C 67.664062 164.933594 65.652344 167.1875 63.8125 169.347656 C 63.730469 169.4375 63.6875 169.5625 63.695312 169.679688 C 63.703125 169.808594 63.761719 169.921875 63.855469 170.003906 C 64.046875 170.160156 64.328125 170.132812 64.492188 169.949219 C 65.988281 168.191406 67.597656 166.367188 69.277344 164.515625 L 86.933594 146.859375 C 88.78125 145.175781 90.597656 143.570312 92.359375 142.082031 L 92.386719 142.054688 C 92.574219 141.882812 92.585938 141.589844 92.414062 141.402344 C 92.242188 141.21875 91.949219 141.203125 91.761719 141.378906 L 91.777344 141.394531 " fill-opacity="1" fill-rule="nonzero"/></g></g></g></g><g clip-path="url(#57652b9e74)"><g clip-path="url(#192df8dd92)"><g clip-path="url(#648d3bfecf)"><path fill="#d3a71e" d="M 65.882812 150.191406 L 51.996094 148.128906 C 51.746094 148.089844 51.515625 148.265625 51.476562 148.511719 C 51.441406 148.761719 51.613281 148.992188 51.859375 149.03125 L 65.757812 151.085938 C 66.007812 151.117188 66.238281 150.949219 66.277344 150.703125 C 66.304688 150.457031 66.132812 150.226562 65.882812 150.191406 " fill-opacity="1" fill-rule="nonzero"/></g></g></g><g clip-path="url(#5b8628f4fb)"><g clip-path="url(#9d980e2066)"><g clip-path="url(#bb13968d3b)"><path fill="#d3a71e" d="M 70.902344 129.085938 C 70.65625 129.125 70.488281 129.355469 70.523438 129.601562 L 72.574219 143.453125 C 72.613281 143.695312 72.839844 143.867188 73.089844 143.835938 C 73.183594 143.820312 73.273438 143.773438 73.34375 143.703125 C 73.445312 143.601562 73.492188 143.457031 73.472656 143.316406 L 71.421875 129.46875 C 71.382812 129.222656 71.152344 129.050781 70.902344 129.085938 " fill-opacity="1" fill-rule="nonzero"/></g></g></g><g clip-path="url(#698647afcb)"><g clip-path="url(#88a58400c8)"><g clip-path="url(#f821c51e9a)"><path fill="#d3a71e" d="M 84.488281 133.386719 C 84.273438 133.265625 84 133.34375 83.875 133.5625 L 78.863281 142.5625 C 78.769531 142.757812 78.824219 142.992188 79 143.128906 C 79.175781 143.257812 79.417969 143.25 79.582031 143.105469 C 79.617188 143.078125 79.648438 143.046875 79.675781 143.015625 L 84.675781 134.019531 L 84.675781 134.015625 C 84.734375 133.90625 84.75 133.78125 84.714844 133.664062 C 84.683594 133.542969 84.601562 133.441406 84.488281 133.386719 " fill-opacity="1" fill-rule="nonzero"/></g></g></g><g clip-path="url(#5f7448d358)"><g clip-path="url(#adbdf1c270)"><g clip-path="url(#89e010b996)"><path fill="#d3a71e" d="M 64.886719 156.597656 L 55.980469 161.535156 C 55.855469 161.578125 55.757812 161.679688 55.707031 161.804688 C 55.664062 161.929688 55.671875 162.070312 55.738281 162.1875 C 55.804688 162.304688 55.914062 162.386719 56.046875 162.414062 C 56.175781 162.441406 56.3125 162.410156 56.417969 162.332031 L 65.324219 157.394531 C 65.363281 157.367188 65.390625 157.335938 65.417969 157.300781 C 65.5625 157.136719 65.570312 156.894531 65.4375 156.722656 C 65.308594 156.546875 65.070312 156.488281 64.875 156.582031 L 64.886719 156.597656 " fill-opacity="1" fill-rule="nonzero"/></g></g></g><g clip-path="url(#8c9ade3ebc)"><g clip-path="url(#5b3bb1fda0)"><g clip-path="url(#c29464531f)"><path fill="#d3a71e" d="M 58.566406 136.457031 C 58.386719 136.632812 58.386719 136.925781 58.566406 137.105469 L 68.183594 146.722656 C 68.363281 146.902344 68.652344 146.902344 68.832031 146.722656 C 69.011719 146.542969 69.011719 146.25 68.832031 146.074219 L 59.210938 136.449219 C 59.03125 136.273438 58.742188 136.273438 58.5625 136.453125 L 58.566406 136.457031 " fill-opacity="1" fill-rule="nonzero"/></g></g></g><g clip-path="url(#695cfc42c8)"><g clip-path="url(#5f2684a9ac)"><g clip-path="url(#2c64dc0a0e)"><path fill="#d3a71e" d="M 66.984375 148.054688 L 59.882812 144.941406 C 59.660156 144.882812 59.433594 144.992188 59.34375 145.199219 C 59.253906 145.40625 59.328125 145.652344 59.515625 145.773438 L 66.617188 148.886719 C 66.789062 148.960938 66.988281 148.925781 67.121094 148.792969 C 67.160156 148.75 67.191406 148.703125 67.214844 148.652344 C 67.3125 148.421875 67.207031 148.15625 66.984375 148.054688 " fill-opacity="1" fill-rule="nonzero"/></g></g></g><g clip-path="url(#956a3218a3)"><g clip-path="url(#a62b425a4a)"><g clip-path="url(#9bc9f26f8d)"><path fill="#d3a71e" d="M 65.015625 153.390625 L 58.3125 154.332031 C 58.097656 154.398438 57.964844 154.613281 57.996094 154.835938 C 58.027344 155.054688 58.21875 155.226562 58.441406 155.230469 L 65.140625 154.292969 C 65.242188 154.277344 65.328125 154.230469 65.398438 154.160156 C 65.527344 154.019531 65.554688 153.8125 65.46875 153.644531 C 65.386719 153.472656 65.203125 153.375 65.015625 153.390625 " fill-opacity="1" fill-rule="nonzero"/></g></g></g><g clip-path="url(#e1ed0551e5)"><g clip-path="url(#ac4381a7cd)"><g clip-path="url(#bc98b3d589)"><path fill="#d3a71e" d="M 76.667969 135.53125 C 76.421875 135.496094 76.191406 135.671875 76.15625 135.921875 L 75.179688 142.75 C 75.144531 143 75.320312 143.230469 75.566406 143.265625 C 75.714844 143.28125 75.851562 143.238281 75.953125 143.132812 C 76.023438 143.066406 76.066406 142.976562 76.082031 142.878906 L 77.058594 136.046875 C 77.09375 135.796875 76.917969 135.566406 76.667969 135.53125 " fill-opacity="1" fill-rule="nonzero"/></g></g></g><g clip-path="url(#45d7422148)"><g clip-path="url(#26b8fef16d)"><g clip-path="url(#fa80d8af70)"><path fill="#d3a71e" d="M 86.421875 138.929688 L 81.984375 143.496094 C 81.804688 143.675781 81.804688 143.96875 81.988281 144.148438 C 82.070312 144.234375 82.1875 144.285156 82.3125 144.285156 C 82.429688 144.28125 82.550781 144.238281 82.636719 144.148438 L 87.074219 139.582031 C 87.25 139.402344 87.25 139.109375 87.074219 138.929688 C 86.894531 138.75 86.601562 138.75 86.421875 138.929688 " fill-opacity="1" fill-rule="nonzero"/></g></g></g><g clip-path="url(#c12360c64a)"><g clip-path="url(#20a4b91a00)"><g clip-path="url(#9fe73ad890)"><path fill="#d3a71e" d="M 66.039062 160.128906 L 61.972656 164.3125 C 61.789062 164.496094 61.789062 164.785156 61.96875 164.964844 C 62.148438 165.144531 62.4375 165.144531 62.621094 164.964844 L 66.683594 160.777344 C 66.769531 160.691406 66.820312 160.574219 66.816406 160.453125 C 66.816406 160.332031 66.769531 160.214844 66.683594 160.128906 C 66.503906 159.953125 66.21875 159.953125 66.039062 160.128906 " fill-opacity="1" fill-rule="nonzero"/></g></g></g><g clip-path="url(#d33a0839a8)"><g clip-path="url(#5bdd66c0c1)"><g clip-path="url(#4e319e5310)"><path fill="#d3a71e" d="M 67.472656 136.984375 C 67.246094 137.085938 67.144531 137.351562 67.242188 137.582031 L 70.394531 144.777344 C 70.441406 144.890625 70.53125 144.980469 70.648438 145.027344 C 70.761719 145.074219 70.886719 145.070312 71.003906 145.023438 C 71.054688 145 71.101562 144.96875 71.144531 144.925781 C 71.273438 144.792969 71.3125 144.59375 71.238281 144.421875 L 68.074219 137.21875 C 67.96875 136.988281 67.703125 136.886719 67.472656 136.984375 " fill-opacity="1" fill-rule="nonzero"/></g></g></g><g transform="matrix(1, 0, 0, 1, 71, 130)"><g clip-path="url(#23649ebbf0)"><g fill="#ffffff" fill-opacity="1"><g transform="translate(0.158484, 85.809506)"><g><path d="M 10.921875 0.59375 C 9.773438 0.59375 8.90625 0.269531 8.3125 -0.375 C 7.71875 -1.03125 7.421875 -1.925781 7.421875 -3.0625 L 7.421875 -57.046875 C 7.421875 -58.242188 7.71875 -59.15625 8.3125 -59.78125 C 8.90625 -60.40625 9.773438 -60.71875 10.921875 -60.71875 C 12.054688 -60.71875 12.921875 -60.40625 13.515625 -59.78125 C 14.109375 -59.15625 14.40625 -58.242188 14.40625 -57.046875 L 14.40625 -3.0625 C 14.40625 -1.925781 14.117188 -1.03125 13.546875 -0.375 C 12.984375 0.269531 12.109375 0.59375 10.921875 0.59375 Z M 10.921875 0.59375 "/></g></g></g></g></g><g clip-path="url(#2dbfe4004d)"><g clip-path="url(#b47efa107d)"><g clip-path="url(#f71fb0b64c)"><path fill="#ffffff" d="M 91.53125 161.039062 C 94.523438 162.203125 96.554688 165.453125 96.269531 168.667969 C 92.433594 167.992188 88.613281 171.863281 89.320312 175.679688 C 83.878906 176.21875 80.550781 171.152344 80.761719 166.070312 C 82.007812 165.949219 83.800781 165.941406 85.835938 166.445312 C 85.851562 168.691406 86.757812 171.257812 89.425781 170.558594 C 91.613281 169.882812 91.878906 166.894531 89.875 165.832031 C 88.804688 165.300781 86.84375 165.074219 85.769531 164.988281 C 83.105469 164.722656 79.441406 165.222656 76.417969 166.601562 C 76.335938 166.515625 74.34375 163.851562 73.085938 162.597656 C 78.570312 159.644531 86.515625 159.039062 91.71875 161.09375 C 91.71875 161.117188 91.648438 161.09375 91.53125 161.039062 Z M 92.078125 171.179688 C 87.320312 175.855469 93.964844 182.957031 98.941406 178.5625 C 103.710938 173.921875 97.089844 166.777344 92.078125 171.179688 Z M 64.050781 163.367188 C 67.03125 164.863281 69.695312 167.410156 71.15625 169.671875 C 71.753906 170.566406 72.792969 172.230469 73.050781 173.398438 C 73.46875 175.636719 70.972656 177.289062 69.070312 175.988281 C 66.863281 174.328125 68.296875 172.027344 70.046875 170.609375 C 69.183594 168.714844 68.050781 167.324219 67.175781 166.40625 C 63.078125 169.410156 61.191406 175.171875 64.992188 179.085938 C 67.535156 176.144531 72.929688 176.714844 74.796875 180.140625 C 77.492188 178.375 78.757812 174.753906 77.796875 171.683594 C 77.839844 171.804688 77.859375 171.878906 77.859375 171.878906 C 76.214844 166.535156 70.792969 160.699219 65.0625 158.253906 C 64.902344 160.039062 64.066406 163.257812 64.050781 163.367188 Z M 65.878906 179.945312 C 60.253906 186.8125 72.457031 192.847656 74.492188 184.203125 C 75.265625 179.402344 69.164062 176.433594 65.878906 179.945312 Z M 52.007812 165.3125 C 52.964844 166.960938 53.074219 168.890625 52.460938 170.5625 C 55.53125 171.558594 59.148438 170.296875 60.945312 167.636719 C 60.867188 167.753906 60.828125 167.8125 60.84375 167.800781 C 63.984375 163.195312 65.183594 155.308594 63.527344 149.308594 C 62.035156 150.257812 58.984375 151.617188 58.890625 151.660156 C 59.570312 154.921875 59.230469 158.601562 58.386719 161.140625 C 58.0625 162.15625 57.421875 164.019531 56.65625 164.960938 C 55.160156 166.671875 52.328125 165.757812 52.148438 163.480469 C 52.058594 160.730469 54.757812 160.410156 56.949219 160.882812 C 57.890625 159.019531 58.277344 157.277344 58.441406 156.015625 C 53.535156 154.679688 47.851562 156.800781 47.175781 162.222656 C 49.105469 162.414062 50.953125 163.484375 52.007812 165.3125 Z M 50.933594 165.921875 C 47.4375 160.25 39.027344 165.136719 42.207031 170.964844 C 45.679688 176.636719 54.113281 171.769531 50.933594 165.921875 Z M 49.847656 143.46875 C 49.148438 145.246094 47.714844 146.53125 46.023438 147.089844 C 47.140625 150.105469 50.402344 152.148438 53.597656 151.898438 C 53.46875 151.902344 53.40625 151.914062 53.394531 151.925781 C 58.964844 151.519531 65.863281 147.53125 69.523438 142.492188 C 67.847656 141.90625 64.90625 140.375 64.789062 140.324219 C 64.789062 140.324219 64.789062 140.324219 64.800781 140.335938 C 62.675781 142.886719 59.589844 144.925781 57.070312 145.859375 C 56.078125 146.253906 54.210938 146.902344 53.007812 146.894531 C 50.726562 146.796875 49.683594 143.988281 51.355469 142.4375 C 53.449219 140.648438 55.386719 142.558594 56.378906 144.566406 C 58.421875 144.140625 60.027344 143.363281 61.105469 142.710938 C 59.089844 138.035156 53.898438 134.929688 49.230469 137.769531 C 50.304688 139.398438 50.609375 141.511719 49.847656 143.46875 Z M 45.621094 145.941406 C 50 144.523438 50.164062 138.101562 45.835938 136.476562 C 36.945312 133.949219 36.667969 148.085938 45.621094 145.941406 Z M 78.597656 142.933594 C 78.015625 141.261719 77.371094 137.988281 77.339844 137.878906 C 74.007812 137.816406 70.5 136.675781 68.210938 135.277344 C 67.285156 134.730469 65.617188 133.675781 64.886719 132.742188 C 63.542969 130.898438 65.082031 128.339844 67.339844 128.683594 C 70.046875 129.214844 69.765625 131.917969 68.796875 133.949219 C 70.398438 135.273438 72.015625 136.050781 73.207031 136.488281 C 75.605469 132 74.800781 125.996094 69.671875 124.125 C 68.660156 127.875 63.539062 129.703125 60.386719 127.425781 C 58.730469 130.1875 59.152344 134.011719 61.347656 136.351562 C 61.257812 136.25 61.210938 136.203125 61.210938 136.203125 C 62 137.175781 64 138.65625 65.488281 139.511719 C 67.992188 141.265625 74.808594 143.320312 78.597656 142.933594 Z M 65.21875 126.972656 C 71.519531 124.824219 68.625 115.53125 62.238281 117.339844 C 55.933594 119.460938 58.808594 128.777344 65.21875 126.972656 Z M 78.324219 132.492188 C 77.488281 138.015625 79.839844 145.628906 83.929688 150.308594 C 84.871094 148.8125 87.019531 146.265625 87.09375 146.171875 C 87.09375 146.171875 87.09375 146.171875 87.082031 146.183594 C 85.0625 143.539062 83.757812 140.074219 83.414062 137.421875 C 83.261719 136.367188 83.046875 134.398438 83.328125 133.238281 C 83.933594 131.039062 86.886719 130.644531 88.03125 132.621094 C 89.304688 135.058594 87.003906 136.527344 84.835938 137.042969 C 84.796875 139.132812 85.195312 140.878906 85.609375 142.066406 C 90.609375 141.152344 94.796875 136.777344 93.0625 131.585938 C 89.496094 133.128906 84.882812 130.273438 84.675781 126.382812 C 81.484375 126.8125 78.769531 129.523438 78.304688 132.695312 C 78.308594 132.550781 78.324219 132.492188 78.324219 132.492188 Z M 93.71875 121.550781 C 88.128906 117.941406 82.636719 125.996094 88.050781 129.886719 C 93.652344 133.484375 99.121094 125.429688 93.71875 121.550781 Z M 98.78125 149.644531 C 98.636719 147.730469 99.371094 145.964844 100.660156 144.722656 C 98.339844 142.496094 94.519531 142.058594 91.75 143.664062 C 91.871094 143.597656 91.921875 143.550781 91.921875 143.550781 C 87.085938 146.339844 82.59375 152.933594 81.484375 159.058594 C 83.25 158.847656 86.578125 158.960938 86.683594 158.953125 C 87.484375 155.71875 89.378906 152.550781 91.253906 150.625 C 92 149.839844 93.378906 148.445312 94.472656 147.933594 C 96.558594 147.03125 98.71875 149.105469 97.886719 151.238281 C 96.769531 153.753906 94.207031 152.882812 92.429688 151.492188 C 90.769531 152.757812 89.65625 154.160156 88.984375 155.222656 C 92.828125 158.566406 98.867188 159.109375 101.839844 154.523438 C 100.132812 153.53125 98.945312 151.753906 98.78125 149.644531 Z M 104.671875 144.152344 C 99.820312 144.464844 98.289062 151.074219 102.441406 153.484375 C 110.371094 157.453125 113.554688 144.214844 104.671875 144.152344 Z M 104.671875 144.152344 " fill-opacity="1" fill-rule="nonzero"/></g></g></g></svg>